<svg width="39" height="67" viewBox="0 0 39 67" fill="none" xmlns="http://www.w3.org/2000/svg">
<path d="M22.9412 54.625L23.25 38.5C31.3001 36.2374 39 29.3967 39 20.9655C39 12.9325 36.543 5.9859 34.4806 1.5758C34.1044 0.765595 33.2922 0.25 32.4044 0.25H6.59559C5.70547 0.25 4.89561 0.765595 4.51938 1.5758C3.16126 4.48288 0 12.1936 0 20.9655C0 29.3967 7.69994 36.3318 15.75 38.5944V54.625C9.29665 57.2029 2.29412 61.1099 2.29412 64.6983C2.29412 65.9711 3.32188 67 4.58824 67H18.3529H20.6471H34.4118C35.6804 67 36.7059 65.9711 36.7059 64.6983C36.7059 61.1099 29.3945 57.2029 22.9412 54.625ZM20.6447 64H18.3529L6 64.75C7.65406 63.1802 13.0581 58.9209 16.7838 57.6734C17.7198 57.3604 18.3529 56.4811 18.3529 55.4914V50.8879V46.2845V37.0776C10.5484 36.5505 3 28.3517 3 20.9655C3 15.9547 4.58824 7.75 8.61439 2.5H30.75C32.4591 6.48428 36 14.5322 36 20.9655C36 28.3494 28.447 36.5482 20.6447 37.0776V46.2845V50.8879V55.4914C20.6447 56.4834 21.2756 57.3627 22.2139 57.6734C25.9511 58.9232 32.0982 63.1377 33.75 64.6983L20.6447 64ZM6.88235 20.9655C6.88235 16.5899 8.16476 12.4353 9.17647 9.45689H22.9412V20.9655C22.9412 22.2361 23.9689 23.2672 25.2353 23.2672C26.5016 23.2672 27.5294 22.2361 27.5294 20.9655V9.45689H29.8235C30.9385 12.6747 32.1176 16.6452 32.1176 20.9655C32.1176 35.715 6.88235 36.9441 6.88235 20.9655Z" fill="white"/>
</svg>
