<svg width="66" height="74" viewBox="0 0 66 74" fill="none" xmlns="http://www.w3.org/2000/svg">
<path d="M52.0181 0.5C45.104 0.5 39.3621 5.47733 38.2459 11.9844H3.08131C2.19812 11.9844 1.39182 12.4759 0.995662 13.2546C0.601838 14.0332 0.685732 14.9634 1.21705 15.6594L21.7239 42.6086V60.9262C15.3341 63.5561 12.4026 68.2348 12.4026 71.7031C12.4026 72.9733 13.4443 74 14.7329 74H40.3665C41.6551 74 42.6968 72.9733 42.6968 71.7031C42.6968 68.2326 39.7652 63.5538 33.3755 60.9262V42.6086L45.619 26.519C47.5392 27.4975 49.7111 28.0625 52.0181 28.0625C59.7291 28.0625 66 21.8816 66 14.2812C66 6.68089 59.7291 0.5 52.0181 0.5ZM52.0181 23.4687C50.762 23.4687 49.5666 23.2161 48.4713 22.7705L53.8823 15.6594C54.4136 14.9634 54.4975 14.0332 54.1037 13.2546C53.7075 12.4759 52.9013 11.9844 52.0181 11.9844H43.0277C44.0693 8.03375 47.686 5.09375 52.0181 5.09375C57.1588 5.09375 61.3394 9.21434 61.3394 14.2812C61.3394 19.3481 57.1588 23.4687 52.0181 23.4687ZM30.75 40.625C30.4471 41.0224 30.3088 42.1102 30.3088 42.6086V62.5156C30.3088 63.5056 32.4224 63.5649 33.3755 63.875C37.0691 65.0877 38.6967 70.0999 39.75 71.7031H26.25H15.75C16.8033 70.1022 18.0303 65.09 21.7239 63.875C22.6747 63.5626 24.7905 63.5033 24.7905 62.5156V42.125C24.7905 41.6266 25.0935 41.0224 24.7905 40.625L4.875 14.75H50.625L40.3665 28.0625L30.75 40.625ZM40.3665 21.1719C40.3665 22.4397 39.3248 21.875 38.0361 21.875H18.75L27.375 32C28.179 32.99 28.843 33.6577 27.841 34.4478C27.4099 34.7855 26.8972 34.9508 26.3869 34.9508C25.7018 34.9508 25.0259 34.6568 24.5645 34.0895L15.2432 22.6051C14.684 21.9161 14.5768 20.9698 14.9636 20.175C15.3528 19.378 16.1684 18.8727 17.0632 18.8727H38.0361C39.3248 18.875 40.3665 19.904 40.3665 21.1719Z" fill="white"/>
</svg>
