<svg width="37" height="74" viewBox="0 0 37 74" fill="none" xmlns="http://www.w3.org/2000/svg">
<path d="M32.1471 25.7656H27.5625V9.6875V5.27291C27.5625 2.64069 25.4195 0.5 22.7896 0.5H13.9604C11.3282 0.5 9.1875 2.64069 9.1875 5.27291V9.6875V25.7656H4.60293C2.06718 25.7656 0 27.8305 0 30.3686V69.42C0 71.9466 2.05568 74 4.57994 74H32.17C34.6966 74 36.75 71.9443 36.75 69.42V30.3686C36.75 27.8305 34.6851 25.7656 32.1471 25.7656ZM33.75 60.2188V71.375L3 71V60.2188H6.89294V64.8125C6.89294 66.0804 7.91964 67.1094 9.18981 67.1094H27.5648C28.835 67.1094 29.8617 66.0804 29.8617 64.8125C29.8617 63.5446 28.835 64.25 27.5648 64.25H11.4867V60.2188H27.5648V39.5469H11.4867V35.375H13.7836C15.0537 35.375 16.0804 36.221 16.0804 34.9531C16.0804 33.6852 15.0537 32.6562 13.7836 32.6562H9.18981C7.91964 32.6562 6.89294 33.6852 6.89294 34.9531V39.5469H3V28.25H33.75V39.5469H29.8617V60.2188H33.75ZM24 9.5H12.75V5.27291C12.75 5.17415 12.75 3.5 12.75 3.5H24C24 3.875 24 5.27623 24 5.375V9.5ZM12 11.9844H24.75V25.7656H12V11.9844ZM32.17 69.4062C32.17 69.4062 32.17 69.4062 32.1723 69.4062L32.17 71.7031V69.4062Z" />
</svg>
