<svg width="166" height="150" viewBox="0 0 166 150" fill="none" xmlns="http://www.w3.org/2000/svg">
<path d="M51.8175 146.508C19.6856 135.001 -0.455864 106.612 0.00783873 73.9259C0.56459 34.6814 32.0414 2.05677 71.2442 0.0917898C110.315 -1.86656 144.591 27.7406 148.885 66.9345C150.236 79.2697 148.632 91.1154 144.15 102.566C143.003 105.496 143.382 107.148 145.926 108.95C151.615 112.98 157.082 117.323 162.685 121.478C165.56 123.609 167.158 126.055 165.003 130.573C156.553 124.688 148.301 118.941 139.815 113.031C117.942 144.063 89.351 156.77 51.8175 146.508ZM116.776 17.1623C101.773 6.42048 85.1666 2.07077 66.78 3.84132C16.1671 8.7151 -13.3321 67.8155 13.1179 111.462C14.647 113.985 16.1651 114.905 19.2352 114.476C30.3128 112.926 41.4535 111.839 52.5456 110.386C57.6198 109.721 63.0415 109.517 67.5759 107.471C73.1925 104.936 78.0517 100.706 83.9725 96.7137C81.1352 95.6114 79.1214 94.8904 77.1555 94.0555C63.9071 88.429 54.5092 79.1527 50.6421 64.9761C49.6228 61.2398 49.7676 57.199 49.0531 53.359C47.8148 46.7037 45.6507 44.9199 39.009 44.0381C36.8126 43.7464 34.6832 42.9443 32.2276 42.2977C38.6597 37.9916 44.3153 34.1146 50.088 30.4224C51.1542 29.7405 52.6813 29.6889 54.0168 29.5463C59.9991 28.9076 65.4256 30.7933 69.2546 35.1607C75.7293 42.5457 83.2053 48.6251 90.6428 54.9493C104.106 66.3969 116.631 78.9646 129.445 91.1739C132.54 94.1238 136.777 96.3314 136.968 101.576C136.994 102.297 138.599 102.961 139.496 103.668C154.964 80.0653 144.191 38.6951 116.776 17.1623ZM119.556 130.972C121.868 128.826 124.181 126.68 127.325 123.762C90.7917 111.078 54.8619 112.175 17.9621 117.621C37.9646 147.37 85.1132 158.333 119.556 130.972ZM123.477 118.991C130.539 121.396 131.959 120.482 136.225 110.649C135.51 110.039 134.817 109.274 133.974 108.757C125.44 103.525 115.773 101.64 106.167 100.211C93.1332 98.2728 96.2016 97.5195 89.8527 109.024C89.7866 109.144 89.8747 109.35 89.9942 110.581C100.645 113.255 111.67 116.024 123.477 118.991ZM90.2356 102.34C90.7217 101.155 91.2078 99.9694 91.9588 98.138C83.1187 97.7477 79.0077 104.855 72.7724 108.612C76.643 109.542 80.6738 110.334 84.1343 109.264C86.4507 108.548 87.9569 105.185 90.2356 102.34Z" fill="#B89137"/>
</svg>
