<svg width="33" height="32" viewBox="0 0 33 32" fill="none" xmlns="http://www.w3.org/2000/svg">
<g clip-path="url(#clip0_1_393)">
<path d="M16.9253 0C12.6948 0.0197426 8.64431 1.71416 5.65986 4.71261C2.67541 7.71105 0.999954 11.7694 1 16C1 20.2435 2.68571 24.3131 5.68629 27.3137C8.68687 30.3143 12.7565 32 17 32C21.2435 32 25.3131 30.3143 28.3137 27.3137C31.3143 24.3131 33 20.2435 33 16C33 11.7565 31.3143 7.68687 28.3137 4.68629C25.3131 1.68571 21.2435 0 17 0L16.9253 0ZM23.5413 9.632C23.6747 9.62933 23.9693 9.66267 24.1613 9.81867C24.2895 9.92896 24.3711 10.0839 24.3893 10.252C24.4107 10.376 24.4373 10.66 24.416 10.8813C24.176 13.412 23.1333 19.5507 22.6027 22.384C22.3787 23.584 21.9373 23.9853 21.5093 24.024C20.5813 24.1107 19.876 23.4107 18.976 22.8213C17.568 21.8973 16.772 21.3227 15.4053 20.4213C13.8253 19.3813 14.8493 18.808 15.7493 17.8747C15.9853 17.6293 20.0787 13.9053 20.1587 13.568C20.168 13.5253 20.1773 13.368 20.084 13.2853C19.9907 13.2027 19.852 13.2307 19.752 13.2533C19.6107 13.2862 17.3613 14.7729 13.004 17.7133C12.364 18.1533 11.7853 18.3667 11.268 18.3533C10.6973 18.3427 9.59867 18.032 8.78133 17.7667C7.77867 17.44 6.98267 17.268 7.052 16.7147C7.08756 16.4267 7.48445 16.132 8.24267 15.8307C12.9067 13.7987 16.0169 12.4591 17.5733 11.812C22.016 9.964 22.94 9.64267 23.5413 9.632Z" fill="white"/>
</g>
<defs>
<clipPath id="clip0_1_393">
<rect width="32" height="32" fill="white" transform="translate(0.5)"/>
</clipPath>
</defs>
</svg>
