<svg width="32" height="32" viewBox="0 0 32 32" fill="none" xmlns="http://www.w3.org/2000/svg">
<path d="M15.9253 0C11.6948 0.0197426 7.64431 1.71416 4.65986 4.71261C1.67541 7.71105 -4.60654e-05 11.7694 9.49913e-10 16C9.49921e-10 20.2435 1.68571 24.3131 4.68629 27.3137C7.68687 30.3143 11.7565 32 16 32C20.2435 32 24.3131 30.3143 27.3137 27.3137C30.3143 24.3131 32 20.2435 32 16C32 11.7565 30.3143 7.68687 27.3137 4.68629C24.3131 1.68571 20.2435 0 16 0L15.9253 0ZM22.5413 9.632C22.6747 9.62933 22.9693 9.66267 23.1613 9.81867C23.2895 9.92896 23.3711 10.0839 23.3893 10.252C23.4107 10.376 23.4373 10.66 23.416 10.8813C23.176 13.412 22.1333 19.5507 21.6027 22.384C21.3787 23.584 20.9373 23.9853 20.5093 24.024C19.5813 24.1107 18.876 23.4107 17.976 22.8213C16.568 21.8973 15.772 21.3227 14.4053 20.4213C12.8253 19.3813 13.8493 18.808 14.7493 17.8747C14.9853 17.6293 19.0787 13.9053 19.1587 13.568C19.168 13.5253 19.1773 13.368 19.084 13.2853C18.9907 13.2027 18.852 13.2307 18.752 13.2533C18.6107 13.2862 16.3613 14.7729 12.004 17.7133C11.364 18.1533 10.7853 18.3667 10.268 18.3533C9.69733 18.3427 8.59867 18.032 7.78133 17.7667C6.77867 17.44 5.98267 17.268 6.052 16.7147C6.08756 16.4267 6.48445 16.132 7.24267 15.8307C11.9067 13.7987 15.0169 12.4591 16.5733 11.812C21.016 9.964 21.94 9.64267 22.5413 9.632Z" fill="#202020"/>
</svg>
